<svg id="Calque_1" data-name="Calque 1" xmlns="http://www.w3.org/2000/svg" viewBox="0 0 576 288"><defs><style>.cls-1{fill:#1d1d1b;}.cls-2{fill:#54f98d;}</style></defs><circle class="cls-1" cx="288" cy="144" r="115.65"/><path class="cls-2" d="M272.23,196.37h-2.05V207h2.09c1.34,0,2-.6,2-1.79v-7C274.27,197,273.59,196.37,272.23,196.37Z"/><path class="cls-2" d="M287.31,210.1h-2.09v11.24h2c1.37,0,2.05-.59,2.05-1.79V211.9C289.31,210.76,288.64,210.16,287.31,210.1Z"/><path class="cls-2" d="M288,23.53A120.47,120.47,0,1,0,408.47,144,120.46,120.46,0,0,0,288,23.53ZM236.42,203h-3.88v-4.81c0-1.19-.69-1.79-2-1.79s-2,.6-2,1.79v21.39c0,1.2.68,1.79,2,1.79s2-.59,2-1.79v-5.82h3.88v3.87q0,6.87-5.93,6.87-6.13,0-6.14-6.87V200.11q0-6.86,6.14-6.86,5.92,0,5.93,6.86ZM218.74,177a7.65,7.65,0,0,1-5.64-8.09,66.23,66.23,0,0,1-5.94-19.85H239.9c0,7.07-.05,13.62-.05,17.88C239.85,180.46,225.13,179,218.74,177Zm30.63,47.44H239V193.25h4.1v28.09h6.29Zm13.95-6.87q0,6.87-6.14,6.87t-6.13-6.87V193.25h4.09v26.3c0,1.2.68,1.79,2,1.79s2.05-.59,2.05-1.79v-26.3h4.09Zm15-14.37c0,2.82-1,4.58-2.91,5.31q2.91,1.14,2.91,5.31v3.75q0,6.87-6.13,6.87h-6.14V193.25h6.14q6.12,0,6.13,6.86Zm15,0c0,2.82-1,4.58-2.92,5.31a4.47,4.47,0,0,1,2.81,3.88,9.13,9.13,0,0,1,.11,1.43v3.75q0,6.87-6.14,6.87h-6.14V193.25h6.14q6.14,0,6.14,6.86Zm6.85,21.24h-4.09V193.25h4.09Zm16.37,0h-4.91l-3.25-13.89-1-4.46-.72-4.17v22.52H303V193.25h4.91l4,16.87.22.92.81,4.72V193.25h3.69ZM331.86,203h-3.94v-4.81c0-1.19-.79-1.79-2.35-1.79-1.4,0-2.11.6-2.11,1.79v21.39c0,1.2.69,1.79,2.06,1.79,1.56,0,2.35-.59,2.35-1.79v-6.36h-2.3V210.1h6.24v14.37l-2-2.11c-.78,1.41-2.22,2.11-4.29,2.11q-6.13,0-6.14-6.87V200.11q0-6.86,6.19-6.86t6.29,6.86Zm3.21-59v.41H335v.43h-.3v-.17h-.19v-.39h-.09v.07h-.09v.08h-.4v-.33h-.13v.3h-.1v.18h-.32v-.13H333v-.11h-.07V144s-.15,0-.15,0v.68h-.32v-.1h-.1v-.46h-.15v-.28H332v.51h-.12v1h-.34v-1.4s-.14,0-.14,0v.22h-.15v.25h-.24v.15h-.29V144h-.12v1.17h-.08v.35h-.33v-1H330v-.39h-.15v1.74h-.09v.71h-.38v-2.45h-.12v.69h-.09V145H329v2.21h-.07v.13h-.36v-1.38h-.12v2h-.11v.52H328v-2.69h-.19v.59h-.31v-.3h-.22v-.72h-.15v2.95h-.32v0h-.1V146h-.15v.56h-.3v-1.2h-.11v-.26s-.16,0-.16,0v.57h-.12s.05,3.78,0,3.78h-.3v-1.05h-.21v1.23h-.09v1H325V146h-.13v.53h-.14v.26h-.36v-1.37h-.24v3.75H324v.32h-.31v-2.82h-.12v3h-.4v-1.82h-.3V147h-.25v.68h-.2v3.15h-.09v.56H322v-5h-.18v4.37h-.62V149.5H321v-1.1h-.16v1.26h-.29v-1.24h-.12v-1.21h-.14v.4h-.22v1.48h-.35v1h-.48V154h-.33v-2.19h-.46v-1.6h-.11v-.38H318v-2.35h-.14V151h-.32v-.85h-.38v-2.31h-.11v6.4h-.33v1.33h-.46v-3.28h-.13v2.84h-.34v-1h-.15v1.54h-.33v-.84H315v-.52h-.14v1.37h-.36v-3.16h-.14v6H314v-5.8H314v.28h-.16v2.5h-.2v.16h-.35v-3.95h-.13v4.07h-.35V153h-.11v1h-.34v-2.25h-.14v1.75h-.35v.18h-.1V154h-.35v.14H311v-5.7h-.12v6.47h-.37V152h-.1v2.44H310v-2.07h-.35v-.78h-.14V153h-.31v2.24h-.37v-2.88h-.12v3.24h-.36v-1.5h-.1v3h-.33v-.5h-.35v-.26h-.13v-.66h-.33v-3.36H307v5.33h-.34V155h-.38v-.24h-.11v-1.31H306v.34h-.32v-.86h-.16v-.59h-.25v-2h-.36v.61h-.37v-1.14h-.12V149h-.32v.89h-.48v-1.3h-.11v.3h-.41v1.92h-.28v-2.59h-.11v1.21h-.32v1h-.46v-.91h-.39v-2h-.11v2.14h-.11v.09h-.35v4.95h-.34v-3.86h-.1v-1.08h-.41V150h-.45v-2.31h-.12v5.61h-.35V157h-.34v-7h-.12v8.49h-.33v-6.61h-.13v5.27h-.32v-1h-.17v.51h-.31v-.5h-.37v1.44H297v2.58h-.36v-2.07h-.15v.42h-.33v-1.24h-.32v.55h-.37v-.73h-.12v-4.7H295v-2.85h-.11v.68h-.21v3.2h-.37v2.69h-.45v-1.64h-.33v-2.58h-.15v2.42H293v5h-.33v-.9h-.11v3.05h-.37v-3.39h-.11v3.37h-.33v-3.72h-.15V160h-.33v-3.27H291v-5.71h-.16v8.58h-.32v-8.36h-.12v5.21H290v-1.83h-.36v-3.74h-.1v-1.34h-.13V153h-.35v-5H289v3h-.34v-2.27h-.23V147.6h-.5v-.11h-.22v-.88h-.13v1.25h-.34v-1h-.12v.07H287v.14h-.34v-1.22h-.11v2.71h-.35v-2.45H286v.49h-.35v-.79h-.09v-.31h-.13v.17h-.33v-.07H285v-.47h-.36V145h-.11v.22h-.15v.73h-.19v1h-.38v-.17h-.33v-.22h-.13V145h-.14v.3h-.08v.17h-.37v-.81h-.46v-.23h-.11v.18h-.47v-.55h-.11v.19h-.15v.88h-.3V144H281v.32h-.1v.44h-.33v-.11h-.13v.52h-.34v-.4H280v-.68h-.14v1.23h-.08v.14h-.35v.45h-.39v-.67H279v-1.81h-.14v2.25h-.1v.11h-.38v.75H278v-.68h-.11V143.5h-.12v.92h-.11v1.12h-.33v-.08h-.17v-.68H277v-.33h-.26v-.78h-.12V146h-.11v1.3h-.35v-.46h-.09v-.73H276v.39h-.37v1.23h-.11v2.93h-.33v-.53H275v-.82h-.35v-.45h-.15v2.38h-.08v.64h-.32v-1.22H274v1.2h-.32v-.12h-.1V149.5h-.13v1.58H273v-2.77h-.14v2.43h-.3v-1.17h-.14v1.49h-.37v-2.29H272v-3h-.11v2.63h-.35v1.91h-.48V145H271v.93h-.15V148h-.34v6.48h-.33v-2.41H270v-6.73h-.15v2.75h-.07v.49h-.28v1.12h-.09v7.16h-.34v-.31H269v-10h-.1v6.1h-.13v4.7h-.31v1.14h-.35v-1.36h-.13v-9h-.11v7.14h-.12v5.13h-.35v.12H267v-1.94h-.12V150h-.13v1.92h-.11v10.22h-.32V158h-.13V156.7H266v-.1h-.12v-3h-.14V145h-.15v21.53h-.32V161h-.09v-3.26h-.3v-4.84h-.16v-3.7h-.13v11h-.46v-3.4h-.34v-.94h-.13v-3h-.09v2.44h-.14v6.16h-.33v-3.1H263v-4.62h-.22v-1.21h-.14V149.8h-.12v3.65h-.34v-1.87H262v1.59h-.08v.59h-.37V147.9h-.11v-.17h-.14v.54H261V143h-.17v6h-.11v.66h-.36v-2.26h-.13v.17h-.29V145.7h-.12v-1.82h-.13v5.46h-.11v1.57h-.34v-2.29h-.12v.48h-.35V146h-.24v5.64h-.13v.29h-.33v-.82H258v.75h-.33v-1.37h-.37v3.72h-.32v-1.76h-.14v1.34h-.35v-6.81h-.23v1.81h-.16v2.94h-.35v.16h-.32v-.58H255v-.69h-.11v7.27h-.36v8.94h-.43V153.64H254v3.11h-.21v2.64h-.39v6.41h-.09v7.85h-.36V158.89h-.14v9.28h-.29v-7.48h-.25v7h-.14v9.83h-.33V167h-.44v-5.25h-.24v18.63h-.36v-6h-.11V157.41h-.32V156H250v11.57h-.1v6.54h-.35V161.38h-.09V148.53h-.15v1.29H249v-.28h-.15v12.54h-.1v.43h-.3V147.62h-.18v-.76h-.12v2.36h-.32V148h-.12v9.47h-.48v-10H247v1h-.37V149h-.15v2.9h-.31v-5.26H246v.64h-.11v.41h-.38v1.1h-.33v-.25h-.11v-2.18h-.35v-2.49h-.16v.07h-.27v-.39h-.23v.11h-.19v.14h-.33v-.1h-.22v.06h-.23v.1H243V144h-.33v-.3h-.13v.13h-.7v-.18h-.12v.18h-.23V144h-.37v-.25H241v-.11h-.1v-.13h-.12v.14h-.21v.14h-.38l0,0h-.08v-.14h-.58v.11h-.35v.13h-.47v0h-.24v-.06h-.33v-.11h-.15v.28h-.31v-.23h-.16v.13h-.31v-.11H237v.06h-.48v-.07h-.18v-.06h-.55v.26h-.4v-.23h-.14v-.1h-.13v.17h-.48v.1h-.31l-.07-.08H234v-.23h-.15v.15h-.31v-.06h-.21v.09h-.28v-.09H233v-.08h-.13v.18h-.31v-.14h-.12v.13H232V144h-.35v-.28h-.26v-.19h-.13v.38h-.31v-.12h-.17v-.08h-.08v.16h-.35v-.16H230v.08h-.27v-.11h-.25v.12h-.29v-.11h-.54v.3h-.42v-.1h-.34v-.2h-.33v.09h-.75v-.22h-.29v.2h-.2V144h-.35v-.3h-.38v.05h-.73v-.11h-.45v-.1h-.12v.2h-.35v-.08h-.24v.05h-.3v-.05h-.12v.16h-.35v0h-.25v-.13h-.14v.1H222v-.07h-.11v.08h-.22v.41h-.33v-.09h-.09v-.43H221v.2h-.33v-.11h-.49v-.09h-.11v.08h-.41v-.08h-.21v.09h-.41v-.1h-.16v.09h-.8v-.1h-.38v.25h-.44v.1h-.34v-.25h-.14v.11h-.29v-.08h-2.73v-.11h-.14v.11H213v-.11h-.48v.22h-.17V144H212v-.51h-.13v.11h-.12v.12h-.22v.11h-.4V144h-.3v-.27h-.48v.1H210v-.11h-.47v.09h-.33v-.36H209v.16h-.27v.14h-.41v-.11h-.56l-.05,0h-.08v-.08h-.13v.06h-.08v.08h-.1v.12l-.6-.06.09-.67H207v.1h.12V143h.11v-.11h.35v.1H208v.12h.23V143h.59v.12h.11v-.23h.35v.34h.1V143h.94v.12h.83V143h.05V143h.4v.12h.29v.05h.06v.07h.35v-.3h.06v0h.41v.1h.12v-.11h.34v.22h.23V143h.12v-.06h.35v.18h2.59v.05h.13V143H217v0h.06v.06h.24V143h.24v0h.05v-.06h.4v.24h.36V143h.35v-.22H219v.05h0v.06h.08v.28h.22v-.1h.14V143h.32v.17H220v-.06h.23V143h.58v-.12h.34V143h.13V143h.58v-.11h.34v.17h.23V143h.36v.12h.34v.05h.06v-.06h.41V143h.35v.11h.23v-.22h.35V143h.06V143h.06v.06h.11V143h.35v.11h.57V143H226v.23h.23V143h.22v-.11H227v.06H227v.28h.12v-.06h.11v-.05h.58v.11H228V143h0V143h.07v-.11h.35V143h.23v.17h.11v-.11h.36V143h.35v.06h.35v.05h.33V143h.36v.17h.23v-.11H231v-.23h.11v-.06h.7v.27H232v.13h.13v-.11h.21V143h.13v-.23h.35V143h.34v.12h.24v.05h.12v-.07h.11V143H234v.11h.11V143h.35v.06h.23v-.22h.36v.1h.34v.13h.06v.05h0v-.05h.12v0h.12v0h.47V143h.4V143h.06v.17h.12v-.34h.46V143h.06V143h.07v-.11h.33v.1h.38v-.28h.32v.22h.12v.13h.12v0h.22V143H239v-.22h.34V143h.22v.11h.25v-.13h.35v.11h.23v.13h.12V143h.35v-.22h.34V143h.36v-.22h.34v.12H242V143h.24v.07h.11V143h.36v.12H243v.11h.11V143h.35V143h.48V143H244v-.12h.35v.24h.12V143h.05v-.06h.06v-.39h.24v-3h.11v-2.93h.31v1.79h.38v.35h.05v.06h0v3.82h.12v-.17h.05v-.06H246V131.87h.37v1.51h.06v.09h.05v3h.34V141h.14v2.15H247v-6.93h.11v-10.6h.34v8.19h.12v.45H248v8.16h.1v-.16h.14v-8.82h0v-.09h.08v-12.2h.34v9.29H249V135h.07v.07h.05v6.42h.15v-.57h.07V114.66h0v0h.11v-1.94h.32V123h.34v9.67h.23V121.43h.15V105.78h.34v10.57h.33v6.46h.12V126h.24v-6.7h0v-.08h.08v-4.87H252v1.14h.33v12.42h.37v-8.83h.05V119h.08v-1.86h.32v-.92h.36v14.61h.05V131h.06v2.67h.24V116.14h.34v5.63h.06v.07h.06v3.52h.32v7.35h.13v.12h.34v1.09h.37v2.31h.33v.14H256v2.74h.13v-.72h.23v-5.7h.33v-.44H257v3.64h.1v.23h.23v-.45h.12v-2.35h.34v1.06h.38v.06h.08V138h.25v-.29h.13v-1H259v.11h.12v-.06h.34v.45h.33v1.86h.37v-1.38h.35v2.78h.13v-2.34h0v-.06h.06v-.39h.37v1.75h.05v.09h.05v.84h.13v-2.2h.34v-2.71h.11V121.2h.35v9.12h.12v6.11h.35v1.63h.06v.09h.07v-3.84h.11V112.42h.34v5.8h.06v.11h0v12.16h.2v.27h.08v.09h.09v3.67h.21V118.15H264v-10h.35V128.4h.1v3.74h.26v.92h0v.08h.06v4.77h.11v-12.2H265v-.07H265V109.43h.35V127h.06v.06h.06v7.22h.31v1.94h.13V129.5h.13V107.38h.35v9.14h.1V135.9h.12v-2.5h.13v-2.59h.34V113h.35v5.92h.11v16.22h.23v-1.51h.37v-16.8h.36v3h.11v16.69h.1v-1.14h.13v-1.52h.34v-8.14h.34v1h.12v10h.11v3.5h.11v-1.51h.36v-8.5h.36v2.73h.1v7.87h.46v-.23h.12V135h.36v.25h.13v3.41h.33v2.51h.13v-5.91h.11v-2.42h.33v3.67h.13v-.25h.32v3.66h.18v-6.16h.31v.32h.12v3.57h.12v-.86h.32v1.76h.14v-5.2h.35v2.1h.1v2.75h.13v-.33h.35V139h.11V136.9h.36V139h.1v1.62h.34V141h.11v.66h.16v-2.34h.29v.63h.15v2.68h.22v.29h.37v-1.82H278v.76h.22v-.44h.34V141h.16v-.56h.31v1.29h.27v-.1h.29v.51h.14v-1h.48v1.12h.12v-.41h.37v.95h.09v-.65H281v-.44h.29v.78h.16v.21h.08v-.3h.37v-.83h.45V142h.11v1h.13V141.6h.09v-.35H283v.09h.29V139.2h.19v-.33h.17v-.44H284v1.65H284v1.1h.14v-.26h.15v-.17s.3,0,.3,0v.76h.15v-.13h.1V140h.35v1.62h.14v-.79h.45V140h.12v-.83h.35V140h.1v-1.47h.36v1.12h.1v-.11H287v-.22h.36v1.35h.1v-3h.34v1.44h.14v.36h.1v-.68h.38v-.28h.13v-1.13h.3v.27H289v-1.45h.34v-2.73h.44v.79h.37v2.27h.11v-1h.32v2h.18v-2.47h.34v-1h.08v-1.66h.37v-2.17h.12v-.83H292v-.22h.12v-.31h.3v-5.19h.34v7.16h.46v3h.36v.79h.16V134H294v-2.31h.42v2h.35v-2h.37s0,.85,0,.85h.12v-6.53h.33v-.77h.3v1h.19v-2.22h.34v-1.56h.35v9.13h.14v-6.62h.3v5.41h.48v-1.73a1.44,1.44,0,0,1,.36,0s0,1.57,0,1.57h.33v.32h.14v2.26h.33v1.84h.09v.24h.37v2.77h.12v-1h.29V137h.17v1.73h.34v.41h.15v-2.08h.35v.68h.11v-.9h.34v2.37h.16v-1.51h.43v-1.87h.36v-2.3h.34v5h.07v-1.43h.39v2.28H303v-4h.36v-.29h.33v.82h.12V137h.11v-1.09h.37v1.64h.32V137h.11v-1.4h.67v2.32h.16v-4.34h.31V137H306V133h.33v1.92h.13v-.53h.33v.43h.36v.62h.12v-1.47h.3V135h.32v-1.1h.33v.18h.16v-.12h.3v-.21h.3v1.82h.16v-.83h.21v-.22h.23v-2H310v-2h.35v1.26h.26v2.76h.19V133.2h.3v.29h.16v-3h.31v3.42h.33v1h.21V134h.28v2.67h.16V133h.29v-2.25h.34v3h.2v-2.08h.26v2.52h.16V133h.32v-2.24h.36v2.76h.12v-.37h.13v-1.33h.64V133h.2v-7.2h.28v3.33H316v2.41h.36v2.84h.17s-.05-2.51,0-2.51h.29v2.9h.11v2.05h.34v-1.21h.39v-.17H318v2.26h.19V132h.26v.3h.16V137h.08v-7.18H319v7.29h.33v1.52h.13v-1.56h.31v1.09h.53v-2.73h.12V135h.3v2.09h.38v2.17h.15v-4.14h.26V136h.13v4.44h.16v-4.67h.33V139h.24v-3h.3v4.18h.13v-1.88H323v-4.67h.27v4.19h.1V136h.16v-.2h.31v3.37H324v-.54h.33v3h.28V139.8h.12v-1.38H325v.37h.23v-2.53h.25v.38h.1v3.83h.1v-.53h.37V140h.15v2.22h.12v-1.05h.14V139h.31v1h.08v1.14H327v-1.26h.42v2h.15v-1.54h.11v-1.45h.18v-.45h.3v2.91h.12v-3.13h.32v1.2h.11v2.29h.18V141H329v-.41h.32v2h.09v-1.14h.17v-.28h.3v1.14h.16v-.55h.71V142h.48v.59h.09v-.23h.43v.53H332v-1.11h.39V143h.17v-.32h.12v-1s.31-.06.31,0v.84h.13v-.4h.1v-.18h.28v.43h.14v.25h.16v-.43h.33v.66h.15a3.75,3.75,0,0,1,0-.67h.14v-.78h.27v.87h.17v-.36h.1v-.67h.31V142h.19v.58h.14v-.47h.35v1.14h.16v-1.11h.33v.17h.16v.91h.06V143h.13v-.45h.45V143h.16v-.28h.13v-.19h.28v.1h.26v.09h.34v-.1h.46v.14H339v.1h.22v-.16h.39v.07h.52V143h.09s-.06-.07,0-.07h.41v.11H341v-.2h.39V143h.4v.15h.15v-.28h.3V143h.24v-.21h.39V143h.1v.14h.17V143h.35v-.14h.44v-.07h.38v.1h.38v-.07H345v.23h.5V143h.17v-.33h.23v.2h.19v.1h.24v-.05h.23v-.16h.27V143h.19v-.08h.22v-.12h.3V143h.12v.27H348v-.52h.36v.13h.41v.34H349v-.13h.26V143h.18v-.16h.26V143H350v-.16h.48v.29h.12V143h.26v.14h.35v.15h.15v-.39h.85v.32h.15v-.1h.12v-.16h.18v-.14h.3V143h.33v.17h.17V143h.31v.1h.28v-.38h.32v.44h.14v-.27h.37v.17h.17V143h.16v-.17h.37V143h.14v-.21h.41v.15h.36v.14h.11v-.22H357v.29h.12s-.09-.15,0-.15h.29v-.08h.17V143H358v-.15h.29V143h.38v.11h.17v-.34h.31V143h.2V143h.34v.13h.2V143h.64v-.11h.33v.1H361v.23h.15V143h.58v.19h.16v-.12h.36v.1h.13V143h.07v-.27h.29v.24H363v-.07h.33v.1h.22v-.13h.18v-.33h.37v.57h.15v-.18h.38V143h.2v-.22h.44v.13h.18v-.09h.7v-.1h.42V143h.3v.44h-.23v.23h-.21v.09h-.34v.35h-.37v-.41h-.11v.07h-.12V144h-.38v-.38h-.22V144h-.29v-.3h-.13v-.2h-.13v.24h-.15v.39h-.32v-.79h-.14v.82h-.33v-.1h-.14v-.39h-.19v.1h-.33v.07h-.35v-.12h-.15v-.12h-.11v.09h-.42v.08h-.34l-.11-.1H361v.12h-.25v-.27h-.17v.08h-.2v.14H360v-.08h-.67v-.09h-.3v.1H359v.14h-.31v-.24h-.36v.13h-.51v-.09h-.43v.15H357l-.15-.15h-.13l-.13.13h-.29v-.08h-.15v-.07H356V144h-.4v-.35h-.27v.14h-.13v.11h-.28l-.12-.12h-.54v-.24h-.16v.13h-.45v.21h-.33v-.09h-.12v-.08h-.25v.11h-1v-.16h-.17v.1h-.21v-.13h-.21v.2h-.5v-.05h-.13v-.11h-.12V144h-.28v-.41h-.15v.21h-.1v.11h-.29v-.26h-.19v-.09h-.11v.1h-.54v.16h-.32v-.26h-.29v.12h-.25V144h-.31v-.26h-.32v-.16h-.08v.11h-.11s0,.13,0,.13H347v.06h-.5v-.25h-.21v.15h-1v-.13H345v.2h-.25v-.07h-.28V144h-.37v-.19h-.57v-.13h-.12v.14h-.68v-.12h-.1v.07h-.4v-.08h0v.07H342v.31h-.27v-.41h-.38v-.08h-.22v.26h-.52v-.15h-.15v.17h-.36v-.17h-.15v.19h-.53v-.11h-.18v.13h-.31v0h-.1v-.14h-.15V144h-.53v-.17H338V144h-.29v.1h-.12v.23h-.31v-.59h-.34v.3h-.38v-.22h-.08v-.16h-.13v.13h-.14v.84h-.11v.15h-.32v-1.08h-.18v.55h-.09v.52h-.34V144Zm13.44,80.86h-2.4L343.17,208v.61H340.8v16.29h-2.37V208.56h-2.37v-1.81h9.31l1.57,9.75.35,3.21.36-3.19,1.6-9.77h2.4ZM356.39,177c-6.38,2-21.1,3.43-21.1-10.06,0-4.26,0-10.81-.06-17.88H368a66.4,66.4,0,0,1-6,19.85A7.67,7.67,0,0,1,356.39,177Zm-21.22-39.49c-.06-11.61-.12-22-.12-23.56,0-2.94,2.45-5.4,2.45-5.4s-12.64-35.34-49.94-35.34-49.92,35.34-49.92,35.34,2.45,2.46,2.45,5.4c0,1.51-.07,12-.13,23.56H207c1.24-12.48,6.36-24.79,6.36-24.79,0-7.12,7.85-7.36,7.85-7.36S236,56.31,287.56,56.31s66.38,49.08,66.38,49.08,7.85.24,7.85,7.36c0,0,5.11,12.31,6.35,24.79Z"/><path class="cls-2" d="M287.26,196.37h-2V207h2.09c1.33,0,2-.6,2-1.79v-7C289.31,197,288.63,196.37,287.26,196.37Z"/><path class="cls-2" d="M272.27,210.1h-2.09v11.24h2.05c1.36,0,2-.59,2-1.79V211.9C274.27,210.76,273.61,210.16,272.27,210.1Z"/></svg>